<mxfile host="Electron" modified="2024-04-18T06:43:05.353Z" agent="Mozilla/5.0 (Macintosh; Intel Mac OS X 10_15_7) AppleWebKit/537.36 (KHTML, like Gecko) draw.io/24.1.0 Chrome/120.0.6099.109 Electron/28.1.0 Safari/537.36" etag="WqvPadwMY5aPF4YGYLKz" version="24.1.0" type="device">
  <diagram name="Page-1" id="0qjQd0bIqAvKOakUr5sT">
    <mxGraphModel dx="1434" dy="795" grid="1" gridSize="10" guides="1" tooltips="1" connect="1" arrows="1" fold="1" page="1" pageScale="1" pageWidth="850" pageHeight="1100" math="0" shadow="0">
      <root>
        <mxCell id="0" />
        <mxCell id="1" parent="0" />
        <mxCell id="B33dUFEOLYse5lPXIUkT-1" value="1&amp;nbsp; 0&amp;nbsp; 0&lt;div&gt;0&amp;nbsp; 0&amp;nbsp; 0&lt;/div&gt;&lt;div&gt;0&amp;nbsp; 0&amp;nbsp; 0&lt;/div&gt;" style="text;strokeColor=none;align=center;fillColor=none;html=1;verticalAlign=middle;whiteSpace=wrap;rounded=0;shadow=0;" parent="1" vertex="1">
          <mxGeometry x="110" y="360" width="50" height="50" as="geometry" />
        </mxCell>
        <mxCell id="eVz9kyh2wZNCzk7anxAL-1" value="0&amp;nbsp; 1&amp;nbsp; 0&lt;div&gt;0&amp;nbsp; 0&amp;nbsp; 0&lt;/div&gt;&lt;div&gt;0&amp;nbsp; 0&amp;nbsp; 0&lt;/div&gt;" style="text;strokeColor=none;align=center;fillColor=none;html=1;verticalAlign=middle;whiteSpace=wrap;rounded=0;shadow=0;" parent="1" vertex="1">
          <mxGeometry x="180" y="360" width="50" height="50" as="geometry" />
        </mxCell>
        <mxCell id="eVz9kyh2wZNCzk7anxAL-2" value="1&amp;nbsp; 1&amp;nbsp; 0&lt;div&gt;0&amp;nbsp; 1&amp;nbsp; 0&lt;/div&gt;&lt;div&gt;0&amp;nbsp; 0&amp;nbsp; 0&lt;/div&gt;" style="text;strokeColor=none;align=center;fillColor=none;html=1;verticalAlign=middle;whiteSpace=wrap;rounded=0;shadow=0;" parent="1" vertex="1">
          <mxGeometry x="450" y="360" width="50" height="50" as="geometry" />
        </mxCell>
        <mxCell id="eVz9kyh2wZNCzk7anxAL-3" value="0&amp;nbsp; 0&amp;nbsp; 0&lt;div&gt;0&amp;nbsp; 1&amp;nbsp; 0&lt;/div&gt;&lt;div&gt;0&amp;nbsp; 0&amp;nbsp; 0&lt;/div&gt;" style="text;strokeColor=none;align=center;fillColor=none;html=1;verticalAlign=middle;whiteSpace=wrap;rounded=0;shadow=0;" parent="1" vertex="1">
          <mxGeometry x="250" y="360" width="50" height="50" as="geometry" />
        </mxCell>
        <mxCell id="eVz9kyh2wZNCzk7anxAL-4" value="后续简写为" style="text;strokeColor=none;align=center;fillColor=none;html=1;verticalAlign=middle;whiteSpace=wrap;rounded=0;" parent="1" vertex="1">
          <mxGeometry x="370" y="370" width="80" height="30" as="geometry" />
        </mxCell>
      </root>
    </mxGraphModel>
  </diagram>
</mxfile>
